<svg width="24" height="24" viewBox="0 0 24 24" fill="none" xmlns="http://www.w3.org/2000/svg">
<path d="M9.25305 4.31303C8.72392 4.1035 8.16435 4.22037 7.76044 4.6098L1.54131 10.6332C0.811743 11.3369 0.823917 12.4743 1.55348 13.1784L7.80305 19.2026C8.20696 19.5916 8.72174 19.7089 9.25087 19.499C9.77913 19.2894 10.0313 18.7944 10.0313 18.2456V5.56646C10.0309 5.01759 9.78261 4.52173 9.25305 4.31303Z" fill="#51596D"/>
<path d="M20.0765 4.26713C19.5478 4.0576 18.9643 4.17447 18.5609 4.5639L12.3296 10.5877C11.6004 11.2914 11.6065 12.4284 12.3361 13.1329L18.5826 19.1563C18.9869 19.5453 19.5465 19.6626 20.0761 19.4531C20.6043 19.2431 20.9009 18.7485 20.9009 18.1992V5.52098C20.9004 4.97127 20.6056 4.47666 20.0765 4.26713Z" fill="#51596D"/>
</svg>
