<svg width="21" height="24" viewBox="0 0 21 24" fill="none" xmlns="http://www.w3.org/2000/svg">
<path d="M17.1625 16.6291C16.3196 16.6291 15.565 16.9651 14.9901 17.4948L7.07316 12.8168C7.1303 12.5575 7.17451 12.2964 7.17451 12.0268C7.17451 11.7572 7.12937 11.497 7.07316 11.2368L14.9007 6.6027C15.4977 7.1643 16.2873 7.51527 17.1625 7.51527C19.0079 7.51527 20.495 6.00739 20.495 4.13261C20.495 2.26161 19.007 0.75 17.1625 0.75C15.3208 0.75 13.8329 2.26161 13.8329 4.13172C13.8329 4.40501 13.878 4.66149 13.9343 4.9217L6.10667 9.55952C5.50874 8.99514 4.72011 8.64506 3.8439 8.64506C1.99851 8.64506 0.511475 10.1558 0.511475 12.0268C0.511475 13.8978 1.99851 15.4094 3.8439 15.4094C4.71914 15.4094 5.50874 15.0584 6.10575 14.4969L14.0088 19.1852C13.9545 19.4239 13.9204 19.6729 13.9204 19.9209C13.9204 21.7368 15.3769 23.2138 17.1616 23.2138C18.948 23.2138 20.4055 21.7377 20.4055 19.9209C20.4055 18.1042 18.949 16.6291 17.1625 16.6291Z" fill="#A8A29E"/>
</svg>
